<svg xmlns="http://www.w3.org/2000/svg" version="1.1" xmlns:xlink="http://www.w3.org/1999/xlink" xmlns:svgjs="http://svgjs.dev/svgjs" width="2000" height="1333" preserveAspectRatio="none" viewBox="0 0 2000 1333"><g mask="url(&quot;#SvgjsMask1039&quot;)" fill="none"><path d="M1076.253,1176.502C1157.638,1181.658,1249.09,1165.441,1289.261,1094.474C1329.067,1024.152,1288.331,942.353,1248.634,871.969C1207.928,799.797,1159.01,720.943,1076.253,716.806C988.395,712.414,909.488,773.906,871.189,853.099C837.011,923.77,863.328,1003.857,905.366,1070.155C943.874,1130.885,1004.488,1171.956,1076.253,1176.502" fill="rgba(83, 112, 115, 0.55)" class="triangle-float1"></path><path d="M1008.146139951266 101.99145237828037L647.2077082627011 120.90743404098178 666.1236899254025 481.84586572954674 1027.0621216139675 462.9298840668453z" fill="rgba(83, 112, 115, 0.55)" class="triangle-float3"></path><path d="M1129.5064266204251 742.5818070396251L1441.3881786413003 960.9637608346933 1347.8883804154934 430.7000550187499z" fill="rgba(83, 112, 115, 0.55)" class="triangle-float1"></path><path d="M2011.703,536.526C2130.121,540.488,2235.404,459.907,2288.633,354.053C2337.089,257.691,2309.131,146.986,2254.288,54.111C2200.577,-36.846,2117.334,-114.77,2011.703,-114.916C1905.867,-115.062,1818.687,-39.445,1767.953,53.438C1719.466,142.206,1719.546,246.234,1765.11,336.537C1816.207,437.806,1898.336,532.733,2011.703,536.526" fill="rgba(83, 112, 115, 0.55)" class="triangle-float1"></path><path d="M2009.1228792058657 432.71461933589563L1911.99687857897 150.64023181011623 1629.9224910531905 247.7662324370121 1727.0484916800863 529.8406199627915z" fill="rgba(83, 112, 115, 0.55)" class="triangle-float2"></path><path d="M1630.155440203353 908.7010075909816L1905.3166287188258 1037.330174544969 1886.7950158893605 772.4587709347544z" fill="rgba(83, 112, 115, 0.55)" class="triangle-float3"></path><path d="M333.656715863737 703.6846585257798L372.2187444909663 838.1664341441856 554.6603936049603 713.0825033941387z" fill="rgba(83, 112, 115, 0.55)" class="triangle-float3"></path><path d="M683.63755777305 343.59306040946274L519.2895871397361 617.1140159004327 792.8105426307061 781.4619865337468 957.15851326402 507.94103104277673z" fill="rgba(83, 112, 115, 0.55)" class="triangle-float1"></path><path d="M1352.265,1382.599C1417.445,1378.961,1456.518,1318.478,1489.834,1262.338C1524.185,1204.453,1563.456,1138.622,1532.531,1078.837C1499.993,1015.934,1423.083,996.894,1352.265,996.385C1280.344,995.868,1204.013,1014.274,1167.454,1076.212C1130.424,1138.947,1147.624,1216.96,1185.25,1279.339C1221.484,1339.409,1282.222,1386.509,1352.265,1382.599" fill="rgba(83, 112, 115, 0.55)" class="triangle-float3"></path><path d="M45.25514617760142 829.245934097741L272.4086812440614 935.1693670762114 317.71706317853693 541.4773479872862z" fill="rgba(83, 112, 115, 0.55)" class="triangle-float3"></path><path d="M766.712210878094 488.0853570653069L892.6226150203594 605.4987084296591 1005.787439995755 357.92642653408484z" fill="rgba(83, 112, 115, 0.55)" class="triangle-float1"></path><path d="M876.757,354.694C943.688,352.926,1000.398,307.967,1031.179,248.508C1059.55,193.705,1053.386,128.603,1020.993,76.078C990.245,26.22,935.298,0.168,876.757,-1.887C813.839,-4.095,748.29,12.597,713.848,65.297C676.348,122.677,673.899,197.326,707.524,257.059C741.765,317.886,806.979,356.538,876.757,354.694" fill="rgba(83, 112, 115, 0.55)" class="triangle-float3"></path><path d="M1883.392,546.165C1930.453,546.174,1973.567,519.292,1996.092,477.972C2017.714,438.307,2010.546,391.62,1989.397,351.701C1966.518,308.516,1932.202,267.691,1883.392,265.243C1831.052,262.618,1781.744,293.745,1757.219,340.058C1734.057,383.797,1744.926,435.716,1770.767,477.928C1795.33,518.053,1836.346,546.156,1883.392,546.165" fill="rgba(83, 112, 115, 0.55)" class="triangle-float2"></path><path d="M1637.9827845508646 377.7851895974948L1523.8711420540035 64.26602854049037 1210.351980996999 178.37767103735155 1324.4636234938603 491.896832094356z" fill="rgba(83, 112, 115, 0.55)" class="triangle-float1"></path><path d="M1874.851,920.876C1932.514,919.744,1993.085,910.637,2025.537,862.96C2061.963,809.444,2071.145,737.358,2037.346,682.145C2004.677,628.778,1937.309,613.027,1874.851,616.803C1819.315,620.161,1773.133,653.057,1743.164,699.932C1710.117,751.622,1682.146,816.385,1713.556,869.085C1744.543,921.074,1814.34,922.064,1874.851,920.876" fill="rgba(83, 112, 115, 0.55)" class="triangle-float1"></path></g><defs><mask id="SvgjsMask1039"><rect width="2000" height="1333" fill="#ffffff"></rect></mask><style>
                @keyframes float1 {
                    0%{transform: translate(0, 0)}
                    50%{transform: translate(-10px, 0)}
                    100%{transform: translate(0, 0)}
                }

                .triangle-float1 {
                    animation: float1 5s infinite;
                }

                @keyframes float2 {
                    0%{transform: translate(0, 0)}
                    50%{transform: translate(-5px, -5px)}
                    100%{transform: translate(0, 0)}
                }

                .triangle-float2 {
                    animation: float2 4s infinite;
                }

                @keyframes float3 {
                    0%{transform: translate(0, 0)}
                    50%{transform: translate(0, -10px)}
                    100%{transform: translate(0, 0)}
                }

                .triangle-float3 {
                    animation: float3 6s infinite;
                }
            </style></defs></svg>